<svg width="40" height="40" viewBox="0 0 40 40" fill="none" xmlns="http://www.w3.org/2000/svg">
<path d="M10.5882 3.0293L15.1535 11.2655L10.961 18.8121C10.7603 19.1725 10.6549 19.5782 10.6549 19.9907C10.6549 20.4032 10.7603 20.8089 10.961 21.1693L15.1535 28.7346L10.5882 36.9709C9.72913 36.545 9.01578 35.8737 8.53851 35.0421L1.27132 22.4177C0.847848 21.6807 0.625 20.8455 0.625 19.9954C0.625 19.1453 0.847848 18.3101 1.27132 17.573L8.53851 4.94867C9.01723 4.12053 9.73043 3.45266 10.5882 3.0293Z" fill="url(#paint0_linear_379_21)"/>
<path opacity="0.7" d="M10.9609 18.8215C10.7618 19.1808 10.6574 19.5847 10.6574 19.9954C10.6574 20.4061 10.7618 20.8101 10.9609 21.1693L15.1534 28.7347L10.5881 36.9709C9.72902 36.545 9.01567 35.8738 8.5384 35.0422L1.27122 22.4178C0.693716 21.4209 3.92653 20.2284 10.9609 18.8309V18.8215Z" fill="url(#paint1_linear_379_21)"/>
<path opacity="0.5" d="M11.0543 3.85836L15.1537 11.2652L14.4737 12.4484L10.8587 6.32742C9.81522 4.62242 8.22209 5.50742 6.22803 8.95492L6.52615 8.44242L8.53865 4.94867C9.01237 4.12325 9.71875 3.45568 10.5696 3.0293L11.0449 3.85836H11.0543Z" fill="url(#paint2_linear_379_21)"/>
<path d="M31.4577 4.94855L38.7249 17.5729C39.1505 18.3093 39.3746 19.1448 39.3746 19.9953C39.3746 20.8458 39.1505 21.6813 38.7249 22.4176L31.4577 35.042C31.0329 35.7781 30.4218 36.3895 29.6859 36.8147C28.95 37.2399 28.1152 37.464 27.2652 37.4645H19.998L29.0355 21.1692C29.2346 20.8099 29.3391 20.406 29.3391 19.9953C29.3391 19.5846 29.2346 19.1806 29.0355 18.8214L19.998 2.52637H27.2652C28.1151 2.5268 28.9499 2.75086 29.6859 3.17602C30.4218 3.60118 31.0328 4.21249 31.4577 4.94855Z" fill="url(#paint3_linear_379_21)"/>
<path d="M26.8928 37.4089L19.7188 37.4739L28.4022 21.0948C28.5963 20.7306 28.6979 20.3242 28.6979 19.9115C28.6979 19.4988 28.5963 19.0924 28.4022 18.7282L19.7188 2.52637H21.3584L30.4703 18.6539C30.6862 19.0349 30.7989 19.4656 30.7973 19.9036C30.7956 20.3415 30.6797 20.7714 30.4609 21.1507C28.5 24.5591 26.5527 27.9754 24.6194 31.3995C22.8491 34.5111 23.6131 36.5142 26.8928 37.4089Z" fill="url(#paint4_linear_379_21)"/>
<path d="M12.7307 37.4645C11.9854 37.4645 11.2401 37.2876 10.5879 36.9707L19.5507 20.8061C19.6882 20.558 19.7604 20.279 19.7604 19.9954C19.7604 19.7118 19.6882 19.4329 19.5507 19.1848L10.5879 3.02949C11.2541 2.69957 11.9873 2.52741 12.7307 2.52637H19.9979L29.0354 18.8217C29.2345 19.1809 29.3389 19.5849 29.3389 19.9956C29.3389 20.4063 29.2345 20.8103 29.0354 21.1695L19.9979 37.4648L12.7307 37.4645Z" fill="url(#paint5_linear_379_21)"/>
<path opacity="0.6" d="M28.4019 19.1848L19.1597 2.52637H19.9981L29.0356 18.8217C29.2347 19.1809 29.3391 19.5849 29.3391 19.9956C29.3391 20.4063 29.2347 20.8103 29.0356 21.1695L19.9981 37.4648H19.1597L28.4022 20.8061C28.5396 20.558 28.6117 20.279 28.6117 19.9954C28.6116 19.7118 28.5394 19.4328 28.4019 19.1848Z" fill="url(#paint6_linear_379_21)"/>
<path opacity="0.6" d="M19.5507 19.1847L10.5879 3.02936C10.8673 2.88029 11.2029 2.76842 11.5195 2.67529C13.4948 6.22498 16.4107 11.6103 20.2773 18.8215C20.4763 19.1808 20.5808 19.5847 20.5808 19.9954C20.5808 20.4062 20.4763 20.8101 20.2773 21.1694L11.3798 37.2781C11.0629 37.185 10.8954 37.1197 10.5973 36.98L19.5416 20.8153C19.6792 20.5672 19.7513 20.2883 19.7513 20.0047C19.7513 19.721 19.6792 19.4421 19.5416 19.194L19.5507 19.1847Z" fill="url(#paint7_linear_379_21)"/>
<defs>
<linearGradient id="paint0_linear_379_21" x1="10.1337" y1="35.5832" x2="-4.68885" y2="11.6144" gradientUnits="userSpaceOnUse">
<stop stop-color="#EB6F07"/>
<stop offset="1" stop-color="#FAB743"/>
</linearGradient>
<linearGradient id="paint1_linear_379_21" x1="13.3329" y1="33.1748" x2="5.66642" y2="25.3355" gradientUnits="userSpaceOnUse">
<stop stop-color="#D96504"/>
<stop offset="1" stop-color="#D96504" stop-opacity="0"/>
</linearGradient>
<linearGradient id="paint2_linear_379_21" x1="7.93234" y1="5.1277" x2="11.9813" y2="11.6347" gradientUnits="userSpaceOnUse">
<stop stop-color="#EB6F07"/>
<stop offset="1" stop-color="#EB720A" stop-opacity="0"/>
</linearGradient>
<linearGradient id="paint3_linear_379_21" x1="30.8969" y1="36.8751" x2="17.6377" y2="9.09514" gradientUnits="userSpaceOnUse">
<stop stop-color="#EE6F05"/>
<stop offset="1" stop-color="#FAB743"/>
</linearGradient>
<linearGradient id="paint4_linear_379_21" x1="16.1519" y1="37.9405" x2="37.4905" y2="32.5361" gradientUnits="userSpaceOnUse">
<stop stop-color="#D96504" stop-opacity="0.8"/>
<stop offset="0.498" stop-color="#D96504" stop-opacity="0.2"/>
<stop offset="1" stop-color="#D96504" stop-opacity="0"/>
</linearGradient>
<linearGradient id="paint5_linear_379_21" x1="21.1991" y1="36.8751" x2="7.52949" y2="9.53999" gradientUnits="userSpaceOnUse">
<stop stop-color="#FFA95F"/>
<stop offset="1" stop-color="#FFEBC8"/>
</linearGradient>
<linearGradient id="paint6_linear_379_21" x1="17.8359" y1="16.6017" x2="29.1789" y2="18.3793" gradientUnits="userSpaceOnUse">
<stop stop-color="white" stop-opacity="0.5"/>
<stop offset="1" stop-color="white" stop-opacity="0.1"/>
</linearGradient>
<linearGradient id="paint7_linear_379_21" x1="7.4252" y1="26.4623" x2="21.4425" y2="24.3965" gradientUnits="userSpaceOnUse">
<stop stop-color="white" stop-opacity="0.5"/>
<stop offset="1" stop-color="white" stop-opacity="0.1"/>
</linearGradient>
</defs>
</svg>
