<svg width="40" height="39" viewBox="0 0 40 39" fill="none" xmlns="http://www.w3.org/2000/svg">
<g clip-path="url(#clip0_295_420)">
<path d="M20.001 7.8006C14.8009 7.8006 11.552 10.3996 10.251 15.5997C12.2004 13.0004 14.4761 12.0257 17.0754 12.6756C18.5595 13.0455 19.6201 14.1216 20.7947 15.3142C22.7063 17.2541 24.9189 19.5 29.751 19.5C34.9508 19.5 38.2 16.9007 39.501 11.6994C37.551 14.3 35.2761 15.2752 32.6763 14.625C31.1925 14.2548 30.1331 13.1789 28.957 11.9864C27.0466 10.0464 24.8345 7.8006 20.001 7.8006ZM10.251 19.5C5.05118 19.5 1.80199 22.0993 0.500977 27.3006C2.45077 24.7 4.72557 23.7248 7.32537 24.375C8.8095 24.7452 9.87012 25.821 11.0447 27.0136C12.9563 28.9535 15.1689 31.1994 20.001 31.1994C25.2008 31.1994 28.45 28.6004 29.751 23.4003C27.801 25.9997 25.5261 26.9744 22.9263 26.3244C21.4425 25.9545 20.3831 24.8783 19.207 23.6858C17.2966 21.7458 15.0845 19.5 10.251 19.5Z" fill="#38BDF8"/>
</g>
<defs>
<clipPath id="clip0_295_420">
<rect width="39" height="39" fill="white" transform="translate(0.5)"/>
</clipPath>
</defs>
</svg>
