<svg width="32" height="41" viewBox="0 0 32 41" fill="none" xmlns="http://www.w3.org/2000/svg">
<g clip-path="url(#clip0_295_408)">
<path opacity="0.993" d="M16.7617 0.00358344C16.8706 -0.0104974 16.9666 0.0169188 17.0498 0.0858319C20.1091 3.81927 22.9935 7.69263 25.6937 11.6934C27.6933 14.7039 29.3947 17.8871 30.7979 21.2429C33.0388 27.22 31.8725 32.4201 27.2992 36.8433C23.2975 40.2252 18.6874 41.5424 13.4688 40.7949C7.23081 39.523 2.99112 35.9145 0.749701 29.9692C0.165927 28.0339 -0.0261517 26.0582 0.173464 24.0421C0.505937 20.572 1.32917 17.2241 2.64316 13.9986C3.19065 12.6826 3.90413 11.4753 4.7836 10.3765C5.50035 11.2301 6.1868 12.1088 6.84168 13.0108C7.14483 13.3276 7.46041 13.6295 7.78841 13.9164C10.2926 8.94693 13.2837 4.30933 16.7618 0.00358344" fill="#FF5B11"/>
<path d="M16.1852 6.67188C19.206 10.1755 21.9364 13.9075 24.3765 17.8679C25.14 19.1751 25.7742 20.5536 26.27 21.984C27.3059 26.0597 26.1945 29.4212 22.9358 32.0686C19.7842 34.2863 16.3266 34.9449 12.563 34.0443C8.50454 32.7849 6.15831 30.0546 5.52434 25.8532C5.37053 24.5285 5.50778 23.2388 5.93608 21.984C6.54376 20.4393 7.28759 18.9516 8.15878 17.5386L10.6285 13.9163C12.4968 11.5138 14.3492 9.09894 16.1853 6.67175" fill="#FF9758"/>
</g>
<defs>
<clipPath id="clip0_295_408">
<rect width="31.8061" height="41" fill="white" transform="translate(0.097168)"/>
</clipPath>
</defs>
</svg>
