<svg width="40" height="40" viewBox="0 0 40 40" fill="none" xmlns="http://www.w3.org/2000/svg">
<g clip-path="url(#clip0_295_401)">
<path d="M30.625 0H9.375C4.19733 0 0 4.19733 0 9.375V30.625C0 35.8027 4.19733 40 9.375 40H30.625C35.8027 40 40 35.8027 40 30.625V9.375C40 4.19733 35.8027 0 30.625 0Z" fill="#F4F2ED"/>
<path d="M18.9766 4.38343C18.9094 4.38952 18.6955 4.41093 18.503 4.42608C14.0645 4.82624 9.90703 7.22124 7.27375 10.9022C5.80766 12.9489 4.86969 15.2705 4.51547 17.7297C4.39031 18.5881 4.375 18.8417 4.375 20.0055C4.375 21.1694 4.39031 21.423 4.51562 22.2812C5.36469 28.1494 9.54063 33.0798 15.2041 34.9066C16.2183 35.2334 17.2873 35.4564 18.5031 35.5908C18.9767 35.6427 21.0233 35.6427 21.4969 35.5908C23.5955 35.3586 25.3733 34.8394 27.1267 33.9442C27.3955 33.8069 27.4475 33.7702 27.4108 33.7397C27.3864 33.7212 26.2408 32.1847 24.8663 30.3275L22.3675 26.952L19.2362 22.318C17.5134 19.7703 16.0961 17.6869 16.0837 17.6869C16.0716 17.6839 16.0594 19.7428 16.0533 22.2569C16.0441 26.6587 16.0411 26.8359 15.9861 26.9397C15.9067 27.0894 15.8456 27.1505 15.7172 27.2178C15.6195 27.2666 15.5339 27.2758 15.0727 27.2758H14.5442L14.4036 27.1872C14.3165 27.1327 14.2458 27.0556 14.1989 26.9642L14.1348 26.8267L14.1411 20.702L14.1502 14.5742L14.2448 14.455C14.2937 14.3909 14.3977 14.3084 14.4709 14.2687C14.5961 14.2076 14.645 14.2016 15.1734 14.2016C15.7967 14.2016 15.9005 14.2259 16.0625 14.4031C16.1083 14.452 17.8036 17.0058 19.832 20.0819C21.8856 23.1955 23.9404 26.3082 25.9964 29.4202L28.4708 33.1684L28.5961 33.0859C29.7048 32.365 30.878 31.3386 31.8066 30.2694C33.783 27.9997 35.0569 25.2322 35.4845 22.2812C35.6097 21.423 35.625 21.1694 35.625 20.0055C35.625 18.8416 35.6097 18.5881 35.4845 17.7297C34.6353 11.8616 30.4594 6.93124 24.7959 5.10452C23.797 4.78061 22.7341 4.55764 21.5427 4.42327C21.2494 4.39264 19.2302 4.35921 18.9767 4.38358M25.3733 13.835C25.5198 13.9083 25.6391 14.0487 25.6819 14.1953C25.7063 14.2748 25.7123 15.9733 25.7062 19.8008L25.697 25.2933L24.7288 23.8086L23.7573 22.3241V18.3316C23.7573 15.7503 23.7695 14.2992 23.7878 14.2289C23.8367 14.058 23.9436 13.9236 24.0903 13.8441C24.2155 13.78 24.2614 13.7737 24.7409 13.7737C25.1931 13.7737 25.2725 13.78 25.3733 13.835Z" fill="black"/>
</g>
<defs>
<clipPath id="clip0_295_401">
<rect width="40" height="40" fill="white"/>
</clipPath>
</defs>
</svg>
