<svg width="40" height="40" viewBox="0 0 40 40" fill="none" xmlns="http://www.w3.org/2000/svg">
<g clip-path="url(#clip0_295_425)">
<path d="M30.625 0H9.375C4.19733 0 0 4.19733 0 9.375V30.625C0 35.8027 4.19733 40 9.375 40H30.625C35.8027 40 40 35.8027 40 30.625V9.375C40 4.19733 35.8027 0 30.625 0Z" fill="#007ACC"/>
<path d="M8.84566 20.1326L8.83301 21.7708H14.0393V36.5644H17.7219V21.7708H22.9282V20.1644C22.9282 19.2755 22.9093 18.5326 22.8838 18.5136C22.8647 18.4883 19.6964 18.4754 15.8552 18.4819L8.86473 18.5009L8.84566 20.1326ZM32.2763 18.4544C33.2921 18.7084 34.0668 19.1592 34.7779 19.8956C35.1461 20.2894 35.6921 21.0069 35.7366 21.1783C35.7493 21.229 34.0096 22.3973 32.9557 23.0512C32.9175 23.0767 32.765 22.9115 32.5936 22.6576C32.0794 21.9084 31.5397 21.5845 30.7143 21.5275C29.5016 21.4448 28.7207 22.0798 28.7271 23.1401C28.7271 23.4512 28.7714 23.6353 28.8985 23.8894C29.165 24.4417 29.6604 24.7719 31.216 25.4448C34.0794 26.6767 35.3047 27.4894 36.0668 28.6448C36.9175 29.9337 37.108 31.9909 36.5302 33.5211C35.8954 35.1845 34.3207 36.3147 32.1047 36.6894C31.4191 36.81 29.7936 36.7909 29.0572 36.6576C27.4508 36.3719 25.9271 35.5783 24.9874 34.537C24.6191 34.1306 23.9016 33.0703 23.9461 32.994C23.965 32.9687 24.1302 32.8672 24.3143 32.7592C24.4921 32.6576 25.1652 32.2703 25.8 31.902L26.9493 31.2353L27.1905 31.5909C27.5271 32.1051 28.2635 32.81 28.708 33.0448C29.9841 33.7179 31.7366 33.6226 32.6 32.8481C32.9683 32.5115 33.1207 32.1623 33.1207 31.6481C33.1207 31.1845 33.0635 30.9814 32.8222 30.6322C32.5111 30.1878 31.8763 29.8131 30.073 29.0322C28.0096 28.1433 27.1207 27.5909 26.308 26.7147C25.8382 26.2069 25.3936 25.394 25.2096 24.7147C25.0572 24.1497 25.0191 22.7337 25.1397 22.1623C25.565 20.1687 27.0699 18.7783 29.2413 18.3655C29.9461 18.2322 31.5841 18.283 32.2763 18.4544Z" fill="white"/>
</g>
<defs>
<clipPath id="clip0_295_425">
<rect width="40" height="40" fill="white"/>
</clipPath>
</defs>
</svg>
